<svg width="30" height="31" viewBox="0 0 30 31" fill="none" xmlns="http://www.w3.org/2000/svg">
<path d="M25.1512 22.8857C24.5985 21.5767 23.7965 20.3876 22.7899 19.3848C21.7863 18.379 20.5974 17.5772 19.2889 17.0234C19.2772 17.0176 19.2655 17.0146 19.2537 17.0088C21.0789 15.6904 22.2655 13.543 22.2655 11.1201C22.2655 7.10645 19.0135 3.85449 14.9998 3.85449C10.9862 3.85449 7.7342 7.10645 7.7342 11.1201C7.7342 13.543 8.92073 15.6904 10.7459 17.0117C10.7342 17.0176 10.7225 17.0205 10.7108 17.0264C9.39827 17.5801 8.22053 18.374 7.20979 19.3877C6.20406 20.3913 5.40219 21.5802 4.84846 22.8887C4.30448 24.1697 4.0111 25.5431 3.9842 26.9346C3.98342 26.9658 3.98891 26.9969 4.00033 27.0261C4.01176 27.0552 4.0289 27.0817 4.05074 27.1041C4.07259 27.1265 4.09869 27.1443 4.12751 27.1564C4.15634 27.1686 4.1873 27.1748 4.21858 27.1748H5.97639C6.1053 27.1748 6.20784 27.0723 6.21077 26.9463C6.26936 24.6846 7.17756 22.5664 8.78303 20.9609C10.4442 19.2998 12.6502 18.3857 14.9998 18.3857C17.3494 18.3857 19.5555 19.2998 21.2166 20.9609C22.8221 22.5664 23.7303 24.6846 23.7889 26.9463C23.7918 27.0752 23.8944 27.1748 24.0233 27.1748H25.7811C25.8124 27.1748 25.8433 27.1686 25.8721 27.1564C25.901 27.1443 25.9271 27.1265 25.9489 27.1041C25.9708 27.0817 25.9879 27.0552 25.9993 27.0261C26.0108 26.9969 26.0162 26.9658 26.0155 26.9346C25.9862 25.5342 25.6961 24.1719 25.1512 22.8857ZM14.9998 16.1592C13.6551 16.1592 12.3895 15.6348 11.4373 14.6826C10.4852 13.7305 9.96077 12.4648 9.96077 11.1201C9.96077 9.77539 10.4852 8.50977 11.4373 7.55762C12.3895 6.60547 13.6551 6.08105 14.9998 6.08105C16.3446 6.08105 17.6102 6.60547 18.5623 7.55762C19.5145 8.50977 20.0389 9.77539 20.0389 11.1201C20.0389 12.4648 19.5145 13.7305 18.5623 14.6826C17.6102 15.6348 16.3446 16.1592 14.9998 16.1592Z" fill="url(#paint0_linear_1_5207)"/>
<defs>
<linearGradient id="paint0_linear_1_5207" x1="3.98413" y1="3.85449" x2="30.8212" y2="18.1583" gradientUnits="userSpaceOnUse">
<stop stopColor="#6792FF"/>
<stop offset="1" stopColor="#41C3CB"/>
</linearGradient>
</defs>
</svg>
