<svg width="352" height="131" viewBox="0 0 352 131" fill="none" xmlns="http://www.w3.org/2000/svg">
<path opacity="0.05" fill-rule="evenodd" clip-rule="evenodd" d="M112.578 22.0893H140.314L194.239 22.3183C212.797 22.7159 226.002 21.0609 236.576 32.088C255.065 50.9663 277.398 73.5692 296.5 92.9357C294.407 99.1904 294.502 105.986 296.77 112.179C299.038 118.372 303.34 123.583 308.953 126.937C314.566 130.291 321.146 131.582 327.587 130.593C334.027 129.604 339.935 126.395 344.315 121.507C348.695 116.619 351.281 110.349 351.636 103.753C351.992 97.1575 350.096 90.6385 346.268 85.2933C342.439 79.9481 336.912 76.103 330.616 74.4053C324.321 72.7075 317.641 73.2607 311.701 75.9717C291.465 55.4558 270.785 33.959 250.839 15.2665C242.068 7.48881 230.161 -1.22656 208.838 0.143187H112.574H-25.0022L-3.3169 22.1282L112.578 22.0893ZM323.345 86.1605C326.471 86.1588 329.529 87.0974 332.13 88.8577C334.731 90.6179 336.759 93.1207 337.958 96.0495C339.156 98.9784 339.471 102.202 338.863 105.312C338.255 108.422 336.751 111.279 334.542 113.522C332.332 115.765 329.516 117.293 326.449 117.913C323.383 118.533 320.204 118.216 317.314 117.004C314.425 115.791 311.955 113.737 310.216 111.101C308.478 108.466 307.549 105.366 307.547 102.196C307.546 97.9454 309.21 93.8692 312.172 90.8631C315.135 87.857 319.153 86.1671 323.345 86.1648L323.345 86.1605Z" fill="white"/>
</svg>
