<svg width="481" height="116" viewBox="0 0 481 116" fill="none" xmlns="http://www.w3.org/2000/svg">
<path opacity="0.05" fill-rule="evenodd" clip-rule="evenodd" d="M304.98 139.105L269.6 139.105L200.815 138.812C177.144 138.305 160.299 140.416 146.813 126.349C123.232 102.266 94.7484 73.4304 70.3849 48.7241C73.0567 40.7449 72.9365 32.0756 70.0444 24.1753C67.1524 16.275 61.6652 9.62611 54.5062 5.3475C47.3472 1.06889 38.9536 -0.578133 30.7381 0.6836C22.5225 1.94535 14.9865 6.03882 9.39843 12.2751C3.81037 18.5114 0.511423 26.5097 0.0567437 34.924C-0.397905 43.3383 2.01945 51.6548 6.90208 58.4738C11.7847 65.2928 18.8344 70.198 26.8648 72.3639C34.8952 74.5298 43.4159 73.8241 50.993 70.3656C76.8024 96.5382 103.177 123.962 128.617 147.809C139.804 157.731 154.991 168.849 182.19 167.102L304.982 167.102L480.47 167.102L452.813 139.055L304.98 139.105ZM36.1424 57.3675C32.1538 57.3697 28.254 56.1722 24.9364 53.9266C21.6187 51.681 19.0321 48.4882 17.5037 44.7518C15.9753 41.0154 15.5738 36.9033 16.3499 32.9357C17.1261 28.9681 19.0449 25.323 21.8639 22.4616C24.6829 19.6002 28.2754 17.6509 32.187 16.8603C36.0986 16.0697 40.1536 16.4733 43.8392 18.02C47.5248 19.5667 50.6754 22.187 52.8926 25.5496C55.1098 28.9123 56.294 32.8661 56.2954 36.9112C56.2958 42.3331 54.1731 47.5332 50.394 51.3682C46.6149 55.2031 41.4887 57.359 36.1424 57.3619L36.1424 57.3675Z" fill="white"/>
</svg>
