<svg width="57" height="57" viewBox="0 0 57 57" fill="none" xmlns="http://www.w3.org/2000/svg">
<path fill-rule="evenodd" clip-rule="evenodd" d="M26.7359 20.3114L2.0611 44.9869C-0.687035 47.735 -0.687035 52.1906 2.0611 54.9386C3.07707 55.9546 4.32639 56.595 5.63652 56.8598C7.8706 57.3117 10.2817 56.6715 12.0141 54.9389L36.6889 30.2636C37.4256 30.5026 38.1765 30.685 38.935 30.8109C43.7062 31.6034 48.7765 30.1594 52.4572 26.4787C56.9481 21.9879 58.1092 15.428 55.9409 9.86723L55.94 9.86814L55.9395 9.86686L47.0788 18.7278C45.4318 20.3748 43.0919 20.9065 40.9975 20.3229C39.9995 20.0446 39.0574 19.513 38.2726 18.7281C38.258 18.7136 38.244 18.6986 38.23 18.6836L38.2299 18.6835C38.2203 18.6732 38.2107 18.6629 38.2009 18.6527L38.1991 18.6545C35.8392 16.217 35.8633 12.3279 38.2712 9.91996L47.1319 1.05907C41.571 -1.10924 35.0115 0.0519127 30.5206 4.54289C26.2548 8.80908 24.9933 14.9414 26.7359 20.3114ZM6.97025 53.4335C7.33746 53.4335 7.69108 53.3753 8.02241 53.2677C8.51776 53.1073 8.98361 52.8303 9.37708 52.4369C10.7058 51.1081 10.7058 48.954 9.37708 47.6252C9.36983 47.6179 9.36239 47.611 9.35488 47.6043C8.74092 47.0009 7.89905 46.6287 6.97025 46.6287C5.09119 46.6287 3.56791 48.152 3.56791 50.0311C3.56791 51.9102 5.09119 53.4335 6.97025 53.4335Z" fill="url(#paint0_linear_1_10436)"/>
<defs>
<linearGradient id="paint0_linear_1_10436" x1="0" y1="0" x2="67.6315" y2="38.1555" gradientUnits="userSpaceOnUse">
<stop stopColor="#6792FF"/>
<stop offset="1" stopColor="#41C3CB"/>
</linearGradient>
</defs>
</svg>
